<!-- Generated by IcoMoon.io -->
<svg version="1.1" xmlns="http://www.w3.org/2000/svg" width="24" height="32" viewBox="0 0 24 32">
<title>b-des</title>
<path d="M13.128 0.732c1.932 0 3.469 0.293 4.611 0.878 1.312 0.64 2.414 1.641 3.176 2.886s1.153 2.681 1.127 4.14c0.008 1.407-0.388 2.786-1.142 3.974-0.766 1.218-1.842 2.211-3.118 2.876 1.584 0.559 2.973 1.566 3.996 2.898 1.062 1.318 1.636 2.962 1.625 4.655 0.011 1.479-0.392 2.932-1.164 4.194-0.755 1.253-1.821 2.289-3.096 3.008-0.677 0.363-1.401 0.629-2.152 0.791-0.79 0.176-1.844 0.263-3.162 0.263h-13.525v-30.563h12.822z"></path>
</svg>
