<!-- Generated by IcoMoon.io -->
<svg version="1.1" xmlns="http://www.w3.org/2000/svg" width="25" height="32" viewBox="0 0 25 32">
<title>r-des</title>
<path d="M24.374 31.295h-23.493v-30.563h11.9c2.547 0 4.625 0.454 6.236 1.361 1.538 0.837 2.815 2.083 3.689 3.601 0.882 1.536 1.337 3.279 1.317 5.050 0.021 2.223-0.723 4.386-2.108 6.126-1.327 1.748-3.195 3.006-5.313 3.579l7.773 10.847zM2.506 3.41v15.765h11.286l-11.286-15.765zM2.506 29.67h18.795l-6.411-8.914-1.361 0.044h-11.022v8.87zM3.647 2.357l11.944 16.687c1.918-0.383 3.642-1.424 4.874-2.942 1.268-1.495 1.954-3.397 1.932-5.357 0.018-1.545-0.393-3.065-1.186-4.391-0.79-1.317-1.951-2.371-3.337-3.030-1.288-0.644-2.971-0.966-5.050-0.966h-9.178z"></path>
</svg>
