<!-- Generated by IcoMoon.io -->
<svg version="1.1" xmlns="http://www.w3.org/2000/svg" width="26" height="32" viewBox="0 0 26 32">
<title>s-des</title>
<path d="M4.261 28.072c-2.121-1.851-3.168-4.628-3.141-8.33h6.607c-0.027 1.54 0.432 2.716 1.378 3.527s2.27 1.216 3.972 1.216c1.405 0 2.513-0.23 3.324-0.689s1.216-1.162 1.216-2.108c0-0.784-0.412-1.351-1.236-1.703-0.787-0.34-1.61-0.591-2.452-0.75-0.811-0.149-1.311-0.239-1.5-0.27-1.836-0.34-3.64-0.837-5.391-1.486-1.47-0.547-2.78-1.452-3.81-2.635-1.027-1.189-1.54-2.756-1.54-4.702s0.513-3.601 1.54-4.965c1.027-1.365 2.398-2.385 4.114-3.060 1.791-0.689 3.696-1.033 5.614-1.013 2.459 0 4.587 0.459 6.384 1.378s3.209 2.31 4.236 4.175c0.476 0.789 0.793 1.663 0.932 2.574 0.106 0.8 0.161 1.605 0.162 2.412h-6.607c0-1.459-0.392-2.533-1.175-3.223s-2-1.034-3.648-1.034c-1.324 0-2.351 0.23-3.081 0.689s-1.094 1.081-1.094 1.865c0 0.865 0.486 1.5 1.459 1.905 1.195 0.472 2.429 0.839 3.689 1.094 2.432 0.486 4.33 0.953 5.695 1.399 1.376 0.453 2.602 1.273 3.547 2.371 1 1.135 1.5 2.729 1.5 4.783 0 1.946-0.54 3.621-1.621 5.026s-2.506 2.479-4.276 3.223c-1.818 0.753-3.768 1.132-5.736 1.115-3.918-0.005-6.938-0.932-9.059-2.783z"></path>
</svg>
